PathFileType	4	(X/Y/Z)	/Users/itak/Documents/Research/Walk-IL/dataset/trc/00483_00167.trc
DataRate	CameraRate	NumFrames	NumMarkers	Units	OrigDataRate	OrigDataStartFrame	OrigNumFrames
100.000000	100.000000	4	53	mm	100.000000	374	599
Frame#	Time	RPSI			LPSI			L3			STRN			T10			C7			CLAV			RBAK			LBAK			LSHO			LUPA			LAEL			LAOL			LWTS			LWPS			LFRA			LIFD			LHPS			LHTS			RSHO			RUPA			RAEL			RAOL			RWTS			RWPS			RFRA			RIFD			RHTS			RHPS			RBHD			LFHD			RFHD			LBHD			LHIP			RHIP			RASI			LASI			LKNE			LTHI			LANK			LTIP			LTOE			LMT1			LMT5			LHEE			RKNE			RTHI			RANK			RTIP			RTOE			RMT1			RMT5			RHEE			
		X1	Y1	Z1	X2	Y2	Z2	X3	Y3	Z3	X4	Y4	Z4	X5	Y5	Z5	X6	Y6	Z6	X7	Y7	Z7	X8	Y8	Z8	X9	Y9	Z9	X10	Y10	Z10	X11	Y11	Z11	X12	Y12	Z12	X13	Y13	Z13	X14	Y14	Z14	X15	Y15	Z15	X16	Y16	Z16	X17	Y17	Z17	X18	Y18	Z18	X19	Y19	Z19	X20	Y20	Z20	X21	Y21	Z21	X22	Y22	Z22	X23	Y23	Z23	X24	Y24	Z24	X25	Y25	Z25	X26	Y26	Z26	X27	Y27	Z27	X28	Y28	Z28	X29	Y29	Z29	X30	Y30	Z30	X31	Y31	Z31	X32	Y32	Z32	X33	Y33	Z33	X34	Y34	Z34	X35	Y35	Z35	X36	Y36	Z36	X37	Y37	Z37	X38	Y38	Z38	X39	Y39	Z39	X40	Y40	Z40	X41	Y41	Z41	X42	Y42	Z42	X43	Y43	Z43	X44	Y44	Z44	X45	Y45	Z45	X46	Y46	Z46	X47	Y47	Z47	X48	Y48	Z48	X49	Y49	Z49	X50	Y50	Z50	X51	Y51	Z51	X52	Y52	Z52	X53	Y53	Z53	

375	3.74	483.7381896972656	944.0233154296875	-486.5962219238281	478.2547912597656	944.3982543945312	-342.0204772949219	454.317138671875	1045.345703125	-425.9778747558594	168.1831817626953	1215.884765625	-447.8739013671875	459.5361328125	1166.750732421875	-422.2191162109375	376.7997131347656	1427.883544921875	-463.4559326171875	196.4831237792969	1331.301147460938	-456.4447937011719	451.4892883300781	1299.99560546875	-538.503662109375	402.7317504882812	1392.202026367188	-357.5620727539062	292.0361022949219	1413.013793945312	-287.8689270019531	302.3267822265625	1303.557373046875	-177.7189483642578	294.1258239746094	1085.457641601562	-135.5350341796875	375.7052307128906	1071.214477539062	-195.5008544921875	200.5172576904297	888.2222290039062	-180.0457000732422	254.5975494384766	869.5892333984375	-132.0768432617188	268.6935729980469	998.3381958007812	-128.4774169921875	199.6316375732422	725.3336791992188	-168.6487579345703	250.6648712158203	793.5985107421875	-132.6854400634766	187.712158203125	800.542724609375	-169.5750885009766	328.6278076171875	1380.864990234375	-622.9049682617188	358.3718872070312	1319.62841796875	-691.2449340820312	373.7567138671875	1039.169067382812	-751.4043579101562	417.4629211425781	1008.578186035156	-707.8316040039062	196.6571502685547	900.83642578125	-698.9929809570312	248.7756805419922	854.1478271484375	-753.3272705078125	349.3197021484375	985.2255249023438	-758.1490478515625	120.8037643432617	765.1834716796875	-697.7054443359375	138.420166015625	822.8841552734375	-703.3397216796875	193.5815734863281	784.9630126953125	-745.2200927734375	246.9872436523438	1616.7431640625	-574.6118774414062	121.4102630615234	1604.203979492188	-409.3221435546875	113.729377746582	1599.571533203125	-540.1171875	271.5267944335938	1631.105590820312	-398.8202514648438	345.5312805175781	826.3494262695312	-228.2498168945312	355.3533630371094	845.8021850585938	-631.2236328125	261.7606506347656	885.5438232421875	-557.8290405273438	247.9287567138672	863.6673583984375	-305.6238098144531	379.8008728027344	410.2580871582031	-305.1559753417969	333.1554870605469	554.4290161132812	-275.0538635253906	563.2794799804688	35.85097503662109	-257.2107543945312	428.0302124023438	260.1708374023438	-294.7305908203125	428.8016662597656	39.75941848754883	-461.2854919433594	503.9217224121094	45.05875015258789	-429.7291564941406	432.1607360839844	45.06719207763672	-343.2621154785156	638.517578125	40.53967666625977	-282.4978332519531	193.7668914794922	485.0868225097656	-625.53369140625	275.9002685546875	735.7516479492188	-643.929443359375	180.5187530517578	47.28834915161133	-673.0830688476562	168.8654937744141	343.2225646972656	-648.5635986328125	-19.48625755310059	84.23404693603516	-596.7621459960938	45.70987701416016	70.2398681640625	-567.2349243164062	49.51942443847656	61.47755432128906	-671.2214965820312	249.3398132324219	31.28033256530762	-637.7344970703125	
376	3.75	477.7775573730469	942.6290283203125	-490.0203247070312	472.3547668457031	943.2865600585938	-345.3665771484375	448.4493408203125	1043.14404296875	-429.6582946777344	163.3819274902344	1215.02001953125	-450.7302856445312	454.5885314941406	1164.485229492188	-426.0465698242188	373.0436401367188	1426.22216796875	-467.0222778320312	192.1690826416016	1330.3017578125	-459.3062133789062	446.7907104492188	1297.916015625	-542.2959594726562	399.4230346679688	1390.31982421875	-361.3991394042969	289.2568969726562	1411.494018554688	-291.0049743652344	300.4153442382812	1301.89599609375	-181.0074768066406	292.7027587890625	1083.581665039062	-139.2691192626953	373.7409362792969	1069.584106445312	-200.0427093505859	198.7608947753906	886.5239868164062	-183.8801422119141	252.9591827392578	867.5158081054688	-136.1967315673828	267.2943420410156	996.4721069335938	-132.2690277099609	197.5210723876953	723.6251831054688	-174.0460052490234	248.8868865966797	791.3851928710938	-137.5297088623047	185.9201812744141	798.8273315429688	-174.1995239257812	324.0486450195312	1379.417114257812	-626.2119750976562	353.4207458496094	1318.114868164062	-694.684326171875	367.9794311523438	1037.452270507812	-754.8384399414062	412.0286560058594	1007.131774902344	-711.46875	192.1654052734375	897.7691650390625	-701.1260375976562	244.1239166259766	851.52294921875	-756.04541015625	343.8483276367188	983.3478393554688	-761.4339599609375	117.6070556640625	761.4048461914062	-698.527587890625	134.5888366699219	819.3272094726562	-704.5140380859375	189.5146942138672	781.8438110351562	-747.1941528320312	244.0176086425781	1615.797119140625	-577.5126342773438	118.769660949707	1604.023681640625	-411.9405517578125	110.6818084716797	1599.38232421875	-542.6395874023438	269.0462036132812	1630.066040039062	-401.8021850585938	340.0965576171875	825.3748168945312	-231.0402374267578	349.5389709472656	843.2938842773438	-634.172119140625	255.8680419921875	883.0040283203125	-560.74755859375	242.2085876464844	862.2014770507812	-308.5539855957031	377.5855102539062	409.3615417480469	-305.8595275878906	329.6961669921875	553.2935180664062	-276.389892578125	563.2180786132812	35.94065093994141	-257.0785522460938	426.5221557617188	259.6055908203125	-294.7211608886719	428.6075744628906	39.71240615844727	-461.2922668457031	503.7447204589844	45.3558235168457	-429.6941223144531	431.7206420898438	44.71213912963867	-343.1499938964844	638.3876953125	41.04824447631836	-282.4371948242188	190.9918823242188	481.2938842773438	-626.7200317382812	270.8922424316406	731.8858032226562	-646.3250122070312	182.3494567871094	44.94786834716797	-672.8267822265625	167.1978454589844	339.316162109375	-648.8721313476562	-18.56324005126953	78.47568511962891	-596.8545532226562	46.57765579223633	65.19789123535156	-567.1949462890625	50.69454574584961	57.34730529785156	-671.45751953125	251.1660766601562	29.26569366455078	-637.328857421875	
377	3.76	471.8887634277344	941.3534545898438	-493.3681945800781	466.4103393554688	942.208984375	-348.609375	442.56689453125	1041.050903320312	-433.2939147949219	158.3673095703125	1214.123901367188	-453.7533569335938	449.4984130859375	1162.269653320312	-429.8733825683594	369.0513305664062	1424.595581054688	-470.6397705078125	187.6103668212891	1329.291259765625	-462.2808532714844	441.9207763671875	1295.874145507812	-546.097412109375	395.8480834960938	1388.43017578125	-365.2738647460938	286.1910095214844	1409.933837890625	-294.2130737304688	298.1918334960938	1300.158935546875	-184.4033966064453	290.9122924804688	1081.653564453125	-143.0695037841797	371.4604797363281	1067.898315429688	-204.5996704101562	196.74853515625	884.7540893554688	-187.7928619384766	251.01513671875	865.3963623046875	-140.3236694335938	265.5724487304688	994.546630859375	-136.11279296875	195.0731964111328	721.87109375	-179.3913421630859	246.7777862548828	789.1528930664062	-142.3200073242188	183.8327178955078	797.0753173828125	-178.8433837890625	319.3184204101562	1377.978393554688	-629.5941772460938	348.3572998046875	1316.581909179688	-698.1681518554688	362.1982727050781	1035.653564453125	-758.2230224609375	406.5664672851562	1005.700012207031	-714.9642944335938	187.9399871826172	894.2236328125	-703.5504760742188	239.9688568115234	848.5386352539062	-758.8994140625	338.495849609375	981.3346557617188	-764.6962890625	114.9941635131836	756.9969482421875	-699.9301147460938	131.2251434326172	815.189697265625	-706.20751953125	186.1062316894531	778.2633056640625	-749.4793090820312	240.8466644287109	1614.913330078125	-580.4618530273438	115.9214706420898	1603.88916015625	-414.6301574707031	107.4465713500977	1599.250854492188	-545.2296752929688	266.3475036621094	1629.076171875	-404.8416442871094	334.5423583984375	824.397216796875	-233.8560485839844	343.8298950195312	840.9302978515625	-637.1625366210938	250.0784912109375	880.566650390625	-563.7125854492188	236.4021301269531	860.7420043945312	-311.5785217285156	375.2724304199219	408.4933166503906	-306.6160888671875	326.1065368652344	552.1603393554688	-277.7253723144531	563.11181640625	36.070068359375	-256.9518432617188	424.9614868164062	259.0871276855469	-294.7234191894531	428.3995666503906	39.68448638916016	-461.2763671875	503.56201171875	45.68955612182617	-429.6585083007812	431.2879333496094	44.36949920654297	-343.0330200195312	638.2326049804688	41.72872161865234	-282.3419189453125	188.0545043945312	477.8052978515625	-627.9136962890625	266.0120544433594	727.9904174804688	-648.94384765625	183.5972290039062	43.25579071044922	-672.5245361328125	165.1282501220703	335.8736877441406	-649.1577758789062	-18.28938674926758	72.95137023925781	-596.92333984375	46.84139251708984	60.56197738647461	-567.1616821289062	51.26446914672852	53.88257217407227	-671.7985229492188	252.4072265625	27.92262840270996	-636.9168701171875	
378	3.77	466.1541137695312	940.2586059570312	-496.5656127929688	460.4829711914062	941.1784057617188	-351.6903381347656	436.7699584960938	1039.156494140625	-436.8184509277344	153.1398010253906	1213.22900390625	-456.9449157714844	444.309814453125	1160.183959960938	-433.671630859375	364.8089904785156	1423.052978515625	-474.3118591308594	182.8017425537109	1328.306030273438	-465.3695983886719	436.8843078613281	1293.9296875	-549.9089965820312	392.0002136230469	1386.590576171875	-369.1813354492188	282.8221130371094	1408.372924804688	-297.4892883300781	295.6461181640625	1298.369750976562	-187.9181671142578	288.7268371582031	1079.702392578125	-146.9497222900391	368.8301086425781	1066.18603515625	-209.1988983154297	194.5007476806641	882.9172973632812	-191.7697448730469	248.7953491210938	863.2578735351562	-144.44677734375	263.5181579589844	992.582763671875	-140.0153350830078	192.3321990966797	720.0824584960938	-184.6161651611328	244.3842620849609	786.9273681640625	-147.0222320556641	181.4805145263672	795.2958984375	-183.456787109375	314.4295654296875	1376.582885742188	-633.0586547851562	343.170166015625	1315.054443359375	-701.69775390625	356.4034423828125	1033.799438476562	-761.5447387695312	401.0647277832031	1004.309997558594	-718.3087158203125	183.9868316650391	890.229736328125	-706.2681884765625	236.3208465576172	845.2279663085938	-761.898193359375	333.2611694335938	979.2167358398438	-767.9309692382812	112.9649047851562	752.0015258789062	-701.9326171875	128.3356781005859	810.4929809570312	-708.434326171875	183.3718414306641	774.259521484375	-752.0789184570312	237.4580230712891	1614.123046875	-583.4735107421875	112.8448181152344	1603.822631835938	-417.3940734863281	104.0036087036133	1599.197509765625	-547.8910522460938	263.4088439941406	1628.166748046875	-407.9454040527344	328.8989868164062	823.4130249023438	-236.6870574951172	338.2795715332031	838.8726806640625	-640.1519165039062	244.472900390625	878.4058227539062	-566.7146606445312	230.5507354736328	859.33203125	-314.6892700195312	372.8130493164062	407.6474914550781	-307.5054931640625	322.342529296875	551.038330078125	-279.1423034667969	562.9671630859375	36.25778198242188	-256.8529052734375	423.3236083984375	258.6202392578125	-294.8128662109375	428.1851806640625	39.67855072021484	-461.2410278320312	503.3782958984375	46.04962158203125	-429.630615234375	430.8887634277344	44.05586242675781	-342.9216003417969	638.0645141601562	42.63132858276367	-282.2159729003906	184.6869354248047	474.8744506835938	-629.0833740234375	261.2378234863281	724.3358154296875	-651.7687377929688	184.2252960205078	42.27578735351562	-672.1365356445312	162.4450836181641	333.0771789550781	-649.4208374023438	-18.62735939025879	67.87945556640625	-596.9058227539062	46.56155776977539	56.51397323608398	-567.0704956054688	51.23884201049805	51.17236328125	-672.1671752929688	253.0487518310547	27.31317138671875	-636.5145874023438	
